mtllib blocos_fase_03.mtl
# vertices
v 472 16 496
v 472 16 528
v 472 40 528
v 472 40 496
v 528 40 528
v 528 16 528
v 528 16 496
v 528 40 496
v 548.3636363636369 28 416
v 544 0 416
v 544 0 480
v 548.363636363637 28 480
v 579.7065653774189 -4.323622551479275 480
v 579.7065653774155 -4.323622551478538 416
v 580.0702017410586 27.676377448536186 480
v 580.0702017410553 27.676377448532595 416
v 360 40 496
v 360 40 528
v 360 64 528
v 360 64 496
v 416 64 528
v 416 40 528
v 416 40 496
v 416 64 496
v 248 64 496
v 248 64 528
v 248 88 528
v 248 88 496
v 304 88 528
v 304 64 528
v 304 64 496
v 304 88 496
v -88 136 496
v -88 136 528
v -88 160 528
v -88 160 496
v -32 160 528
v -32 136 528
v -32 136 496
v -32 160 496
v 136 88 496
v 136 88 528
v 136 112 528
v 136 112 496
v 192 112 528
v 192 88 528
v 192 88 496
v 192 112 496
v 24 112 496
v 24 112 528
v 24 136 528
v 24 136 496
v 80 136 528
v 80 112 528
v 80 112 496
v 80 136 496
v -424 208 496
v -424 208 528
v -424 232 528
v -424 232 496
v -368 232 528
v -368 208 528
v -368 208 496
v -368 232 496
v -200 160 496
v -200 160 528
v -200 184 528
v -200 184 496
v -144 184 528
v -144 160 528
v -144 160 496
v -144 184 496
v -312 184 496
v -312 184 528
v -312 208 528
v -312 208 496
v -256 208 528
v -256 184 528
v -256 184 496
v -256 208 496
v -540 224 496
v -540 224 528
v -540 248 528
v -540 248 496
v -484 248 528
v -484 224 528
v -484 224 496
v -484 248 496

# texture coordinates
vt 15.5 0.5
vt 16.5 0.5
vt 16.5 1.25
vt 15.5 1.25
vt 14.75 1.25
vt 14.75 0.5
vt -16.5 -16.5
vt -14.75 -16.5
vt -14.75 -15.5
vt -16.5 -15.5
vt 16.5 -15.5
vt 14.75 -15.5
vt 14.75 -16.5
vt 16.5 -16.5
vt -16.5 0.5
vt -14.75 0.5
vt -14.75 1.25
vt -16.5 1.25
vt -15.5 1.25
vt -15.5 0.5
vt 13 3.1823254
vt 13 2.2969246
vt 15 2.2969246
vt 15 3.1823254
vt -17.967966 -15
vt -16.844112 -15
vt -16.844112 -13
vt -17.967966 -13
vt 18.127193 0.8648868
vt 17.136364 0.875
vt 17 -0
vt 18.11583 -0.13511321
vt -18.11583 -0.13511321
vt -17 -0
vt -17.136364 0.875
vt -18.127193 0.8648868
vt 17.844112 -13
vt 16.861002 -13
vt 16.861002 -15
vt 17.844112 -15
vt -13 2.3138137
vt -13 3.3061793
vt -15 3.3061793
vt -15 2.3138137
vt 13.5 1.25
vt 11.75 1.25
vt 11.75 0.5
vt 13.5 0.5
vt -13.5 -16.5
vt -11.75 -16.5
vt -11.75 -15.5
vt -13.5 -15.5
vt 13.5 -15.5
vt 11.75 -15.5
vt 11.75 -16.5
vt 13.5 -16.5
vt -13.5 0.5
vt -11.75 0.5
vt -11.75 1.25
vt -13.5 1.25
vt 15.5 1.5
vt 16.5 1.5
vt 16.5 2.25
vt 15.5 2.25
vt 9.5 2.25
vt 7.75 2.25
vt 7.75 1.5
vt 9.5 1.5
vt -9.5 -16.5
vt -7.75 -16.5
vt -7.75 -15.5
vt -9.5 -15.5
vt 9.5 -15.5
vt 7.75 -15.5
vt 7.75 -16.5
vt 9.5 -16.5
vt -9.5 1.5
vt -7.75 1.5
vt -7.75 2.25
vt -9.5 2.25
vt -15.5 2.25
vt -16.5 2.25
vt -16.5 1.5
vt -15.5 1.5
vt 15.5 3.5
vt 16.5 3.5
vt 16.5 4.25
vt 15.5 4.25
vt -0.5 4.25
vt -2.25 4.25
vt -2.25 3.5
vt -0.5 3.5
vt 0.5 -16.5
vt 2.25 -16.5
vt 2.25 -15.5
vt 0.5 -15.5
vt -0.5 -15.5
vt -2.25 -15.5
vt -2.25 -16.5
vt -0.5 -16.5
vt 0.5 3.5
vt 2.25 3.5
vt 2.25 4.25
vt 0.5 4.25
vt -15.5 4.25
vt -16.5 4.25
vt -16.5 3.5
vt -15.5 3.5
vt 15.5 2.5
vt 16.5 2.5
vt 16.5 3.25
vt 15.5 3.25
vt 6.5 3.25
vt 4.75 3.25
vt 4.75 2.5
vt 6.5 2.5
vt -6.5 -16.5
vt -4.75 -16.5
vt -4.75 -15.5
vt -6.5 -15.5
vt 6.5 -15.5
vt 4.75 -15.5
vt 4.75 -16.5
vt 6.5 -16.5
vt -6.5 2.5
vt -4.75 2.5
vt -4.75 3.25
vt -6.5 3.25
vt -15.5 3.25
vt -16.5 3.25
vt -16.5 2.5
vt -15.5 2.5
vt 2.5 4.25
vt 0.75 4.25
vt 0.75 3.5
vt 2.5 3.5
vt -2.5 -16.5
vt -0.75 -16.5
vt -0.75 -15.5
vt -2.5 -15.5
vt 2.5 -15.5
vt 0.75 -15.5
vt 0.75 -16.5
vt 2.5 -16.5
vt -2.5 3.5
vt -0.75 3.5
vt -0.75 4.25
vt -2.5 4.25
vt 15.5 6.5
vt 16.5 6.5
vt 16.5 7.25
vt 15.5 7.25
vt -11.5 7.25
vt -13.25 7.25
vt -13.25 6.5
vt -11.5 6.5
vt 11.5 -16.5
vt 13.25 -16.5
vt 13.25 -15.5
vt 11.5 -15.5
vt -11.5 -15.5
vt -13.25 -15.5
vt -13.25 -16.5
vt -11.5 -16.5
vt 11.5 6.5
vt 13.25 6.5
vt 13.25 7.25
vt 11.5 7.25
vt -15.5 7.25
vt -16.5 7.25
vt -16.5 6.5
vt -15.5 6.5
vt 15.5 4.5
vt 16.5 4.5
vt 16.5 5.25
vt 15.5 5.25
vt -4.5 5.25
vt -6.25 5.25
vt -6.25 4.5
vt -4.5 4.5
vt 4.5 -16.5
vt 6.25 -16.5
vt 6.25 -15.5
vt 4.5 -15.5
vt -4.5 -15.5
vt -6.25 -15.5
vt -6.25 -16.5
vt -4.5 -16.5
vt 4.5 4.5
vt 6.25 4.5
vt 6.25 5.25
vt 4.5 5.25
vt -15.5 5.25
vt -16.5 5.25
vt -16.5 4.5
vt -15.5 4.5
vt 15.5 5.5
vt 16.5 5.5
vt 16.5 6.25
vt 15.5 6.25
vt -7.5 6.25
vt -9.25 6.25
vt -9.25 5.5
vt -7.5 5.5
vt 7.5 -16.5
vt 9.25 -16.5
vt 9.25 -15.5
vt 7.5 -15.5
vt -7.5 -15.5
vt -9.25 -15.5
vt -9.25 -16.5
vt -7.5 -16.5
vt 7.5 5.5
vt 9.25 5.5
vt 9.25 6.25
vt 7.5 6.25
vt -15.5 6.25
vt -16.5 6.25
vt -16.5 5.5
vt -15.5 5.5
vt -14.5 7.25
vt -16.25 7.25
vt -16.25 6.5
vt -14.5 6.5
vt 14.5 -16.5
vt 16.25 -16.5
vt 16.25 -15.5
vt 14.5 -15.5
vt -14.5 -15.5
vt -16.25 -15.5
vt -16.25 -16.5
vt -14.5 -16.5
vt 14.5 6.5
vt 16.25 6.5
vt 16.25 7.25
vt 14.5 7.25

# normals
vn -1 0 -0
vn -0 0 1
vn 0 -1 0
vn 0 1 -0
vn 0 0 -1
vn 1 0 -0
vn -0.9880731197830837 0.1539854212648845 -0
vn -0.12020954504083478 -0.9927485408103481 -3.543588617028165e-15
vn 0.010206267743975745 0.9999479146929295 -1.3721141242978217e-16
vn 0.9999354401367986 -0.011362902728927048 -5.151622641775665e-14

o entity1_brush0
usemtl __TB_empty
f  1/1/1  2/2/1  3/3/1  4/4/1
usemtl __TB_empty
f  5/3/2  3/5/2  2/6/2  6/2/2
usemtl __TB_empty
f  6/7/3  2/8/3  1/9/3  7/10/3
usemtl __TB_empty
f  8/11/4  4/12/4  3/13/4  5/14/4
usemtl __TB_empty
f  7/15/5  1/16/5  4/17/5  8/18/5
usemtl __TB_empty
f  8/19/6  5/18/6  6/15/6  7/20/6

o entity1_brush1
usemtl __TB_empty
f  9/21/7  10/22/7  11/23/7  12/24/7
usemtl __TB_empty
f  13/25/8  11/26/8  10/27/8  14/28/8
usemtl __TB_empty
f  15/29/2  12/30/2  11/31/2  13/32/2
usemtl __TB_empty
f  14/33/5  10/34/5  9/35/5  16/36/5
usemtl __TB_empty
f  16/37/9  9/38/9  12/39/9  15/40/9
usemtl __TB_empty
f  14/41/10  16/42/10  15/43/10  13/44/10

o entity1_brush2
usemtl __TB_empty
f  17/1/1  18/2/1  19/3/1  20/4/1
usemtl __TB_empty
f  21/45/2  19/46/2  18/47/2  22/48/2
usemtl __TB_empty
f  22/49/3  18/50/3  17/51/3  23/52/3
usemtl __TB_empty
f  24/53/4  20/54/4  19/55/4  21/56/4
usemtl __TB_empty
f  23/57/5  17/58/5  20/59/5  24/60/5
usemtl __TB_empty
f  24/19/6  21/18/6  22/15/6  23/20/6

o entity1_brush3
usemtl __TB_empty
f  25/61/1  26/62/1  27/63/1  28/64/1
usemtl __TB_empty
f  29/65/2  27/66/2  26/67/2  30/68/2
usemtl __TB_empty
f  30/69/3  26/70/3  25/71/3  31/72/3
usemtl __TB_empty
f  32/73/4  28/74/4  27/75/4  29/76/4
usemtl __TB_empty
f  31/77/5  25/78/5  28/79/5  32/80/5
usemtl __TB_empty
f  32/81/6  29/82/6  30/83/6  31/84/6

o entity1_brush4
usemtl __TB_empty
f  33/85/1  34/86/1  35/87/1  36/88/1
usemtl __TB_empty
f  37/89/2  35/90/2  34/91/2  38/92/2
usemtl __TB_empty
f  38/93/3  34/94/3  33/95/3  39/96/3
usemtl __TB_empty
f  40/97/4  36/98/4  35/99/4  37/100/4
usemtl __TB_empty
f  39/101/5  33/102/5  36/103/5  40/104/5
usemtl __TB_empty
f  40/105/6  37/106/6  38/107/6  39/108/6

o entity1_brush5
usemtl __TB_empty
f  41/109/1  42/110/1  43/111/1  44/112/1
usemtl __TB_empty
f  45/113/2  43/114/2  42/115/2  46/116/2
usemtl __TB_empty
f  46/117/3  42/118/3  41/119/3  47/120/3
usemtl __TB_empty
f  48/121/4  44/122/4  43/123/4  45/124/4
usemtl __TB_empty
f  47/125/5  41/126/5  44/127/5  48/128/5
usemtl __TB_empty
f  48/129/6  45/130/6  46/131/6  47/132/6

o entity1_brush6
usemtl __TB_empty
f  49/85/1  50/86/1  51/87/1  52/88/1
usemtl __TB_empty
f  53/133/2  51/134/2  50/135/2  54/136/2
usemtl __TB_empty
f  54/137/3  50/138/3  49/139/3  55/140/3
usemtl __TB_empty
f  56/141/4  52/142/4  51/143/4  53/144/4
usemtl __TB_empty
f  55/145/5  49/146/5  52/147/5  56/148/5
usemtl __TB_empty
f  56/105/6  53/106/6  54/107/6  55/108/6

o entity1_brush7
usemtl __TB_empty
f  57/149/1  58/150/1  59/151/1  60/152/1
usemtl __TB_empty
f  61/153/2  59/154/2  58/155/2  62/156/2
usemtl __TB_empty
f  62/157/3  58/158/3  57/159/3  63/160/3
usemtl __TB_empty
f  64/161/4  60/162/4  59/163/4  61/164/4
usemtl __TB_empty
f  63/165/5  57/166/5  60/167/5  64/168/5
usemtl __TB_empty
f  64/169/6  61/170/6  62/171/6  63/172/6

o entity1_brush8
usemtl __TB_empty
f  65/173/1  66/174/1  67/175/1  68/176/1
usemtl __TB_empty
f  69/177/2  67/178/2  66/179/2  70/180/2
usemtl __TB_empty
f  70/181/3  66/182/3  65/183/3  71/184/3
usemtl __TB_empty
f  72/185/4  68/186/4  67/187/4  69/188/4
usemtl __TB_empty
f  71/189/5  65/190/5  68/191/5  72/192/5
usemtl __TB_empty
f  72/193/6  69/194/6  70/195/6  71/196/6

o entity1_brush9
usemtl __TB_empty
f  73/197/1  74/198/1  75/199/1  76/200/1
usemtl __TB_empty
f  77/201/2  75/202/2  74/203/2  78/204/2
usemtl __TB_empty
f  78/205/3  74/206/3  73/207/3  79/208/3
usemtl __TB_empty
f  80/209/4  76/210/4  75/211/4  77/212/4
usemtl __TB_empty
f  79/213/5  73/214/5  76/215/5  80/216/5
usemtl __TB_empty
f  80/217/6  77/218/6  78/219/6  79/220/6

o entity1_brush10
usemtl __TB_empty
f  81/149/1  82/150/1  83/151/1  84/152/1
usemtl __TB_empty
f  85/221/2  83/222/2  82/223/2  86/224/2
usemtl __TB_empty
f  86/225/3  82/226/3  81/227/3  87/228/3
usemtl __TB_empty
f  88/229/4  84/230/4  83/231/4  85/232/4
usemtl __TB_empty
f  87/233/5  81/234/5  84/235/5  88/236/5
usemtl __TB_empty
f  88/169/6  85/170/6  86/171/6  87/172/6

