mtllib componente.mtl
# vertices
v -48 0 -12
v -48 0 -0
v -48 68 -0
v -48 68 -12
v 48 68 -0
v 48 0 -0
v 48 0 -12
v 48 68 -12
v -48 68 -12
v -48 68 -4
v -48 100 -4
v -48 100 -12
v -32 112 -4
v -32 112 -12
v 48 112 -4
v 48 68 -4
v 48 68 -12
v 48 112 -12

# texture coordinates
vt 0.125 -0
vt 0.125 0.046875
vt -0.140625 0.046875
vt -0.140625 -0
vt 1.125 0.140625
vt 0.75 0.140625
vt 0.75 -0.125
vt 1.125 -0.125
vt 1.125 0.046875
vt 0.75 0.046875
vt 0.75 -0
vt 1.125 -0
vt -1.125 -0
vt -0.75 -0
vt -0.75 0.046875
vt -1.125 0.046875
vt -1.125 -0.125
vt -0.75 -0.125
vt -0.75 0.140625
vt -1.125 0.140625
vt 0.140625 -0
vt 0.140625 0.046875
vt -0.125 0.046875
vt -0.125 -0
vt -0.21875 -0
vt -0.21875 0.03125
vt -0.34375 0.03125
vt -0.34375 -0
vt -0.80625 -0
vt -0.80625 0.03125
vt -0.884375 0.03125
vt -0.884375 -0
vt 1.125 0.390625
vt 0.8125 0.390625
vt 0.75 0.34375
vt 0.75 0.21875
vt 1.125 0.21875
vt 1.125 0.03125
vt 0.75 0.03125
vt -0.8125 -0
vt -0.8125 0.03125
vt -1.125 0.03125
vt -1.125 0.21875
vt -0.75 0.21875
vt -0.75 0.34375
vt -0.8125 0.390625
vt -1.125 0.390625
vt 0.390625 -0
vt 0.390625 0.03125
vt 0.21875 0.03125
vt 0.21875 -0

# normals
vn -1 0 0
vn 0 0 1
vn 0 -1 -0
vn -0 1 -0
vn 0 -0 -1
vn 1 0 0
vn -0.6 0.8 -0

o entity0_brush0
usemtl Poliigon_MetalGalvanizedZinc_7184_BaseColor
f  1/1/1  2/2/1  3/3/1  4/4/1
usemtl Poliigon_MetalGalvanizedZinc_7184_BaseColor
f  5/5/2  3/6/2  2/7/2  6/8/2
usemtl Poliigon_MetalGalvanizedZinc_7184_BaseColor
f  6/9/3  2/10/3  1/11/3  7/12/3
usemtl Poliigon_MetalGalvanizedZinc_7184_BaseColor
f  8/13/4  4/14/4  3/15/4  5/16/4
usemtl Poliigon_MetalGalvanizedZinc_7184_BaseColor
f  7/17/5  1/18/5  4/19/5  8/20/5
usemtl Poliigon_MetalGalvanizedZinc_7184_BaseColor
f  8/21/6  5/22/6  6/23/6  7/24/6

o entity0_brush1
usemtl Poliigon_MetalGalvanizedZinc_7184_BaseColor
f  9/25/1  10/26/1  11/27/1  12/28/1
usemtl Poliigon_MetalGalvanizedZinc_7184_BaseColor
f  12/29/7  11/30/7  13/31/7  14/32/7
usemtl Poliigon_MetalGalvanizedZinc_7184_BaseColor
f  15/33/2  13/34/2  11/35/2  10/36/2  16/37/2
usemtl Poliigon_MetalGalvanizedZinc_7184_BaseColor
f  16/38/3  10/39/3  9/11/3  17/12/3
usemtl Poliigon_MetalGalvanizedZinc_7184_BaseColor
f  18/13/4  14/40/4  13/41/4  15/42/4
usemtl Poliigon_MetalGalvanizedZinc_7184_BaseColor
f  17/43/5  9/44/5  12/45/5  14/46/5  18/47/5
usemtl Poliigon_MetalGalvanizedZinc_7184_BaseColor
f  18/48/6  15/49/6  16/50/6  17/51/6

