mtllib memoria.mtl
# vertices
v -112 4 -72
v -112 4 72
v -112 16 72
v -112 16 -72
v 152 16 72
v 152 4 72
v 152 4 -72
v 152 16 -72
v -96 4 72
v -96 4 96
v -96 8 96
v -96 8 72
v -80 8 96
v -80 4 96
v -80 4 72
v -80 8 72
v -64 4 72
v -64 4 96
v -64 8 96
v -64 8 72
v -48 8 96
v -48 4 96
v -48 4 72
v -48 8 72
v -32 4 72
v -32 4 96
v -32 8 96
v -32 8 72
v -16 8 96
v -16 4 96
v -16 4 72
v -16 8 72
v 0 4 72
v 0 4 96
v 0 8 96
v 0 8 72
v 16 8 96
v 16 4 96
v 16 4 72
v 16 8 72
v 32 4 72
v 32 4 96
v 32 8 96
v 32 8 72
v 48 8 96
v 48 4 96
v 48 4 72
v 48 8 72
v 64 4 72
v 64 4 96
v 64 8 96
v 64 8 72
v 80 8 96
v 80 4 96
v 80 4 72
v 80 8 72
v 96 4 72
v 96 4 96
v 96 8 96
v 96 8 72
v 112 8 96
v 112 4 96
v 112 4 72
v 112 8 72
v 128 4 72
v 128 4 96
v 128 8 96
v 128 8 72
v 144 8 96
v 144 4 96
v 144 4 72
v 144 8 72
v 128 4 -96
v 128 4 -72
v 128 8 -72
v 128 8 -96
v 144 8 -72
v 144 4 -72
v 144 4 -96
v 144 8 -96
v 96 4 -96
v 96 4 -72
v 96 8 -72
v 96 8 -96
v 112 8 -72
v 112 4 -72
v 112 4 -96
v 112 8 -96
v 64 4 -96
v 64 4 -72
v 64 8 -72
v 64 8 -96
v 80 8 -72
v 80 4 -72
v 80 4 -96
v 80 8 -96
v 32 4 -96
v 32 4 -72
v 32 8 -72
v 32 8 -96
v 48 8 -72
v 48 4 -72
v 48 4 -96
v 48 8 -96
v 0 4 -96
v 0 4 -72
v 0 8 -72
v 0 8 -96
v 16 8 -72
v 16 4 -72
v 16 4 -96
v 16 8 -96
v -32 4 -96
v -32 4 -72
v -32 8 -72
v -32 8 -96
v -16 8 -72
v -16 4 -72
v -16 4 -96
v -16 8 -96
v -64 4 -96
v -64 4 -72
v -64 8 -72
v -64 8 -96
v -48 8 -72
v -48 4 -72
v -48 4 -96
v -48 8 -96
v -96 4 -96
v -96 4 -72
v -96 8 -72
v -96 8 -96
v -80 8 -72
v -80 4 -72
v -80 4 -96
v -80 8 -96

# texture coordinates
vt -0.5 -0
vt 0.0625 -0
vt 0.0625 0.046875
vt -0.5 0.046875
vt 1.15625 0.046875
vt 0.125 0.046875
vt 0.125 -0
vt 1.15625 -0
vt 0.0625 -1.15625
vt 0.0625 -0.125
vt -0.5 -0.125
vt -0.5 -1.15625
vt 0.5 -1.15625
vt 0.5 -0.125
vt -0.0625 -0.125
vt -0.0625 -1.15625
vt -1.15625 -0
vt -0.125 -0
vt -0.125 0.046875
vt -1.15625 0.046875
vt 0.5 0.046875
vt -0.0625 0.046875
vt -0.0625 -0
vt 0.5 -0
vt 0.03125 -0
vt 0.125 0.015625
vt 0.03125 0.015625
vt 0.25 0.015625
vt 0.1875 0.015625
vt 0.1875 -0
vt 0.25 -0
vt 0.125 -0.25
vt 0.125 -0.1875
vt 0.03125 -0.1875
vt 0.03125 -0.25
vt -0.03125 -0.25
vt -0.03125 -0.1875
vt -0.125 -0.1875
vt -0.125 -0.25
vt -0.25 -0
vt -0.1875 -0
vt -0.1875 0.015625
vt -0.25 0.015625
vt -0.03125 0.015625
vt -0.125 0.015625
vt -0.03125 -0
vt 0.375 0.015625
vt 0.3125 0.015625
vt 0.3125 -0
vt 0.375 -0
vt 0.125 -0.375
vt 0.125 -0.3125
vt 0.03125 -0.3125
vt 0.03125 -0.375
vt -0.03125 -0.375
vt -0.03125 -0.3125
vt -0.125 -0.3125
vt -0.125 -0.375
vt -0.375 -0
vt -0.3125 -0
vt -0.3125 0.015625
vt -0.375 0.015625
vt 0.5 0.015625
vt 0.4375 0.015625
vt 0.4375 -0
vt 0.125 -0.5
vt 0.125 -0.4375
vt 0.03125 -0.4375
vt 0.03125 -0.5
vt -0.03125 -0.5
vt -0.03125 -0.4375
vt -0.125 -0.4375
vt -0.125 -0.5
vt -0.4375 -0
vt -0.4375 0.015625
vt -0.5 0.015625
vt 0.625 0.015625
vt 0.5625 0.015625
vt 0.5625 -0
vt 0.625 -0
vt 0.125 -0.625
vt 0.125 -0.5625
vt 0.03125 -0.5625
vt 0.03125 -0.625
vt -0.03125 -0.625
vt -0.03125 -0.5625
vt -0.125 -0.5625
vt -0.125 -0.625
vt -0.625 -0
vt -0.5625 -0
vt -0.5625 0.015625
vt -0.625 0.015625
vt 0.75 0.015625
vt 0.6875 0.015625
vt 0.6875 -0
vt 0.75 -0
vt 0.125 -0.75
vt 0.125 -0.6875
vt 0.03125 -0.6875
vt 0.03125 -0.75
vt -0.03125 -0.75
vt -0.03125 -0.6875
vt -0.125 -0.6875
vt -0.125 -0.75
vt -0.75 -0
vt -0.6875 -0
vt -0.6875 0.015625
vt -0.75 0.015625
vt 0.875 0.015625
vt 0.8125 0.015625
vt 0.8125 -0
vt 0.875 -0
vt 0.125 -0.875
vt 0.125 -0.8125
vt 0.03125 -0.8125
vt 0.03125 -0.875
vt -0.03125 -0.875
vt -0.03125 -0.8125
vt -0.125 -0.8125
vt -0.125 -0.875
vt -0.875 -0
vt -0.8125 -0
vt -0.8125 0.015625
vt -0.875 0.015625
vt 1 0.015625
vt 0.9375 0.015625
vt 0.9375 -0
vt 1 -0
vt 0.125 -1
vt 0.125 -0.9375
vt 0.03125 -0.9375
vt 0.03125 -1
vt -0.03125 -1
vt -0.03125 -0.9375
vt -0.125 -0.9375
vt -0.125 -1
vt -1 -0
vt -0.9375 -0
vt -0.9375 0.015625
vt -1 0.015625
vt 1.125 0.015625
vt 1.0625 0.015625
vt 1.0625 -0
vt 1.125 -0
vt 0.125 -1.125
vt 0.125 -1.0625
vt 0.03125 -1.0625
vt 0.03125 -1.125
vt -0.03125 -1.125
vt -0.03125 -1.0625
vt -0.125 -1.0625
vt -0.125 -1.125
vt -1.125 -0
vt -1.0625 -0
vt -1.0625 0.015625
vt -1.125 0.015625
vt -0.59375 -0
vt -0.59375 0.015625
vt -0.5 -1.125
vt -0.5 -1.0625
vt -0.59375 -1.0625
vt -0.59375 -1.125
vt 0.59375 -1.125
vt 0.59375 -1.0625
vt 0.5 -1.0625
vt 0.5 -1.125
vt 0.59375 0.015625
vt 0.59375 -0
vt -0.5 -1
vt -0.5 -0.9375
vt -0.59375 -0.9375
vt -0.59375 -1
vt 0.59375 -1
vt 0.59375 -0.9375
vt 0.5 -0.9375
vt 0.5 -1
vt -0.5 -0.875
vt -0.5 -0.8125
vt -0.59375 -0.8125
vt -0.59375 -0.875
vt 0.59375 -0.875
vt 0.59375 -0.8125
vt 0.5 -0.8125
vt 0.5 -0.875
vt -0.5 -0.75
vt -0.5 -0.6875
vt -0.59375 -0.6875
vt -0.59375 -0.75
vt 0.59375 -0.75
vt 0.59375 -0.6875
vt 0.5 -0.6875
vt 0.5 -0.75
vt -0.5 -0.625
vt -0.5 -0.5625
vt -0.59375 -0.5625
vt -0.59375 -0.625
vt 0.59375 -0.625
vt 0.59375 -0.5625
vt 0.5 -0.5625
vt 0.5 -0.625
vt -0.5 -0.5
vt -0.5 -0.4375
vt -0.59375 -0.4375
vt -0.59375 -0.5
vt 0.59375 -0.5
vt 0.59375 -0.4375
vt 0.5 -0.4375
vt 0.5 -0.5
vt -0.5 -0.375
vt -0.5 -0.3125
vt -0.59375 -0.3125
vt -0.59375 -0.375
vt 0.59375 -0.375
vt 0.59375 -0.3125
vt 0.5 -0.3125
vt 0.5 -0.375
vt -0.5 -0.25
vt -0.5 -0.1875
vt -0.59375 -0.1875
vt -0.59375 -0.25
vt 0.59375 -0.25
vt 0.59375 -0.1875
vt 0.5 -0.1875
vt 0.5 -0.25

# normals
vn -1 0 0
vn 0 0 1
vn 0 -1 -0
vn -0 1 -0
vn 0 -0 -1
vn 1 0 0

o entity0_brush0
usemtl Poliigon_MetalGalvanizedZinc_7184_BaseColor
f  1/1/1  2/2/1  3/3/1  4/4/1
usemtl Poliigon_MetalGalvanizedZinc_7184_BaseColor
f  5/5/2  3/6/2  2/7/2  6/8/2
usemtl Poliigon_MetalGalvanizedZinc_7184_BaseColor
f  6/9/3  2/10/3  1/11/3  7/12/3
usemtl Poliigon_MetalGalvanizedZinc_7184_BaseColor
f  8/13/4  4/14/4  3/15/4  5/16/4
usemtl Poliigon_MetalGalvanizedZinc_7184_BaseColor
f  7/17/5  1/18/5  4/19/5  8/20/5
usemtl Poliigon_MetalGalvanizedZinc_7184_BaseColor
f  8/21/6  5/22/6  6/23/6  7/24/6

o entity0_brush1
usemtl Poliigon_MetalGalvanizedZinc_7184_BaseColor
f  9/25/1  10/7/1  11/26/1  12/27/1
usemtl Poliigon_MetalGalvanizedZinc_7184_BaseColor
f  13/28/2  11/29/2  10/30/2  14/31/2
usemtl Poliigon_MetalGalvanizedZinc_7184_BaseColor
f  14/32/3  10/33/3  9/34/3  15/35/3
usemtl Poliigon_MetalGalvanizedZinc_7184_BaseColor
f  16/36/4  12/37/4  11/38/4  13/39/4
usemtl Poliigon_MetalGalvanizedZinc_7184_BaseColor
f  15/40/5  9/41/5  12/42/5  16/43/5
usemtl Poliigon_MetalGalvanizedZinc_7184_BaseColor
f  16/44/6  13/45/6  14/18/6  15/46/6

o entity0_brush2
usemtl Poliigon_MetalGalvanizedZinc_7184_BaseColor
f  17/25/1  18/7/1  19/26/1  20/27/1
usemtl Poliigon_MetalGalvanizedZinc_7184_BaseColor
f  21/47/2  19/48/2  18/49/2  22/50/2
usemtl Poliigon_MetalGalvanizedZinc_7184_BaseColor
f  22/51/3  18/52/3  17/53/3  23/54/3
usemtl Poliigon_MetalGalvanizedZinc_7184_BaseColor
f  24/55/4  20/56/4  19/57/4  21/58/4
usemtl Poliigon_MetalGalvanizedZinc_7184_BaseColor
f  23/59/5  17/60/5  20/61/5  24/62/5
usemtl Poliigon_MetalGalvanizedZinc_7184_BaseColor
f  24/44/6  21/45/6  22/18/6  23/46/6

o entity0_brush3
usemtl Poliigon_MetalGalvanizedZinc_7184_BaseColor
f  25/25/1  26/7/1  27/26/1  28/27/1
usemtl Poliigon_MetalGalvanizedZinc_7184_BaseColor
f  29/63/2  27/64/2  26/65/2  30/24/2
usemtl Poliigon_MetalGalvanizedZinc_7184_BaseColor
f  30/66/3  26/67/3  25/68/3  31/69/3
usemtl Poliigon_MetalGalvanizedZinc_7184_BaseColor
f  32/70/4  28/71/4  27/72/4  29/73/4
usemtl Poliigon_MetalGalvanizedZinc_7184_BaseColor
f  31/1/5  25/74/5  28/75/5  32/76/5
usemtl Poliigon_MetalGalvanizedZinc_7184_BaseColor
f  32/44/6  29/45/6  30/18/6  31/46/6

o entity0_brush4
usemtl Poliigon_MetalGalvanizedZinc_7184_BaseColor
f  33/25/1  34/7/1  35/26/1  36/27/1
usemtl Poliigon_MetalGalvanizedZinc_7184_BaseColor
f  37/77/2  35/78/2  34/79/2  38/80/2
usemtl Poliigon_MetalGalvanizedZinc_7184_BaseColor
f  38/81/3  34/82/3  33/83/3  39/84/3
usemtl Poliigon_MetalGalvanizedZinc_7184_BaseColor
f  40/85/4  36/86/4  35/87/4  37/88/4
usemtl Poliigon_MetalGalvanizedZinc_7184_BaseColor
f  39/89/5  33/90/5  36/91/5  40/92/5
usemtl Poliigon_MetalGalvanizedZinc_7184_BaseColor
f  40/44/6  37/45/6  38/18/6  39/46/6

o entity0_brush5
usemtl Poliigon_MetalGalvanizedZinc_7184_BaseColor
f  41/25/1  42/7/1  43/26/1  44/27/1
usemtl Poliigon_MetalGalvanizedZinc_7184_BaseColor
f  45/93/2  43/94/2  42/95/2  46/96/2
usemtl Poliigon_MetalGalvanizedZinc_7184_BaseColor
f  46/97/3  42/98/3  41/99/3  47/100/3
usemtl Poliigon_MetalGalvanizedZinc_7184_BaseColor
f  48/101/4  44/102/4  43/103/4  45/104/4
usemtl Poliigon_MetalGalvanizedZinc_7184_BaseColor
f  47/105/5  41/106/5  44/107/5  48/108/5
usemtl Poliigon_MetalGalvanizedZinc_7184_BaseColor
f  48/44/6  45/45/6  46/18/6  47/46/6

o entity0_brush6
usemtl Poliigon_MetalGalvanizedZinc_7184_BaseColor
f  49/25/1  50/7/1  51/26/1  52/27/1
usemtl Poliigon_MetalGalvanizedZinc_7184_BaseColor
f  53/109/2  51/110/2  50/111/2  54/112/2
usemtl Poliigon_MetalGalvanizedZinc_7184_BaseColor
f  54/113/3  50/114/3  49/115/3  55/116/3
usemtl Poliigon_MetalGalvanizedZinc_7184_BaseColor
f  56/117/4  52/118/4  51/119/4  53/120/4
usemtl Poliigon_MetalGalvanizedZinc_7184_BaseColor
f  55/121/5  49/122/5  52/123/5  56/124/5
usemtl Poliigon_MetalGalvanizedZinc_7184_BaseColor
f  56/44/6  53/45/6  54/18/6  55/46/6

o entity0_brush7
usemtl Poliigon_MetalGalvanizedZinc_7184_BaseColor
f  57/25/1  58/7/1  59/26/1  60/27/1
usemtl Poliigon_MetalGalvanizedZinc_7184_BaseColor
f  61/125/2  59/126/2  58/127/2  62/128/2
usemtl Poliigon_MetalGalvanizedZinc_7184_BaseColor
f  62/129/3  58/130/3  57/131/3  63/132/3
usemtl Poliigon_MetalGalvanizedZinc_7184_BaseColor
f  64/133/4  60/134/4  59/135/4  61/136/4
usemtl Poliigon_MetalGalvanizedZinc_7184_BaseColor
f  63/137/5  57/138/5  60/139/5  64/140/5
usemtl Poliigon_MetalGalvanizedZinc_7184_BaseColor
f  64/44/6  61/45/6  62/18/6  63/46/6

o entity0_brush8
usemtl Poliigon_MetalGalvanizedZinc_7184_BaseColor
f  65/25/1  66/7/1  67/26/1  68/27/1
usemtl Poliigon_MetalGalvanizedZinc_7184_BaseColor
f  69/141/2  67/142/2  66/143/2  70/144/2
usemtl Poliigon_MetalGalvanizedZinc_7184_BaseColor
f  70/145/3  66/146/3  65/147/3  71/148/3
usemtl Poliigon_MetalGalvanizedZinc_7184_BaseColor
f  72/149/4  68/150/4  67/151/4  69/152/4
usemtl Poliigon_MetalGalvanizedZinc_7184_BaseColor
f  71/153/5  65/154/5  68/155/5  72/156/5
usemtl Poliigon_MetalGalvanizedZinc_7184_BaseColor
f  72/44/6  69/45/6  70/18/6  71/46/6

o entity0_brush9
usemtl Poliigon_MetalGalvanizedZinc_7184_BaseColor
f  73/157/1  74/1/1  75/76/1  76/158/1
usemtl Poliigon_MetalGalvanizedZinc_7184_BaseColor
f  77/141/2  75/142/2  74/143/2  78/144/2
usemtl Poliigon_MetalGalvanizedZinc_7184_BaseColor
f  78/159/3  74/160/3  73/161/3  79/162/3
usemtl Poliigon_MetalGalvanizedZinc_7184_BaseColor
f  80/163/4  76/164/4  75/165/4  77/166/4
usemtl Poliigon_MetalGalvanizedZinc_7184_BaseColor
f  79/153/5  73/154/5  76/155/5  80/156/5
usemtl Poliigon_MetalGalvanizedZinc_7184_BaseColor
f  80/167/6  77/63/6  78/24/6  79/168/6

o entity0_brush10
usemtl Poliigon_MetalGalvanizedZinc_7184_BaseColor
f  81/157/1  82/1/1  83/76/1  84/158/1
usemtl Poliigon_MetalGalvanizedZinc_7184_BaseColor
f  85/125/2  83/126/2  82/127/2  86/128/2
usemtl Poliigon_MetalGalvanizedZinc_7184_BaseColor
f  86/169/3  82/170/3  81/171/3  87/172/3
usemtl Poliigon_MetalGalvanizedZinc_7184_BaseColor
f  88/173/4  84/174/4  83/175/4  85/176/4
usemtl Poliigon_MetalGalvanizedZinc_7184_BaseColor
f  87/137/5  81/138/5  84/139/5  88/140/5
usemtl Poliigon_MetalGalvanizedZinc_7184_BaseColor
f  88/167/6  85/63/6  86/24/6  87/168/6

o entity0_brush11
usemtl Poliigon_MetalGalvanizedZinc_7184_BaseColor
f  89/157/1  90/1/1  91/76/1  92/158/1
usemtl Poliigon_MetalGalvanizedZinc_7184_BaseColor
f  93/109/2  91/110/2  90/111/2  94/112/2
usemtl Poliigon_MetalGalvanizedZinc_7184_BaseColor
f  94/177/3  90/178/3  89/179/3  95/180/3
usemtl Poliigon_MetalGalvanizedZinc_7184_BaseColor
f  96/181/4  92/182/4  91/183/4  93/184/4
usemtl Poliigon_MetalGalvanizedZinc_7184_BaseColor
f  95/121/5  89/122/5  92/123/5  96/124/5
usemtl Poliigon_MetalGalvanizedZinc_7184_BaseColor
f  96/167/6  93/63/6  94/24/6  95/168/6

o entity0_brush12
usemtl Poliigon_MetalGalvanizedZinc_7184_BaseColor
f  97/157/1  98/1/1  99/76/1  100/158/1
usemtl Poliigon_MetalGalvanizedZinc_7184_BaseColor
f  101/93/2  99/94/2  98/95/2  102/96/2
usemtl Poliigon_MetalGalvanizedZinc_7184_BaseColor
f  102/185/3  98/186/3  97/187/3  103/188/3
usemtl Poliigon_MetalGalvanizedZinc_7184_BaseColor
f  104/189/4  100/190/4  99/191/4  101/192/4
usemtl Poliigon_MetalGalvanizedZinc_7184_BaseColor
f  103/105/5  97/106/5  100/107/5  104/108/5
usemtl Poliigon_MetalGalvanizedZinc_7184_BaseColor
f  104/167/6  101/63/6  102/24/6  103/168/6

o entity0_brush13
usemtl Poliigon_MetalGalvanizedZinc_7184_BaseColor
f  105/157/1  106/1/1  107/76/1  108/158/1
usemtl Poliigon_MetalGalvanizedZinc_7184_BaseColor
f  109/77/2  107/78/2  106/79/2  110/80/2
usemtl Poliigon_MetalGalvanizedZinc_7184_BaseColor
f  110/193/3  106/194/3  105/195/3  111/196/3
usemtl Poliigon_MetalGalvanizedZinc_7184_BaseColor
f  112/197/4  108/198/4  107/199/4  109/200/4
usemtl Poliigon_MetalGalvanizedZinc_7184_BaseColor
f  111/89/5  105/90/5  108/91/5  112/92/5
usemtl Poliigon_MetalGalvanizedZinc_7184_BaseColor
f  112/167/6  109/63/6  110/24/6  111/168/6

o entity0_brush14
usemtl Poliigon_MetalGalvanizedZinc_7184_BaseColor
f  113/157/1  114/1/1  115/76/1  116/158/1
usemtl Poliigon_MetalGalvanizedZinc_7184_BaseColor
f  117/63/2  115/64/2  114/65/2  118/24/2
usemtl Poliigon_MetalGalvanizedZinc_7184_BaseColor
f  118/201/3  114/202/3  113/203/3  119/204/3
usemtl Poliigon_MetalGalvanizedZinc_7184_BaseColor
f  120/205/4  116/206/4  115/207/4  117/208/4
usemtl Poliigon_MetalGalvanizedZinc_7184_BaseColor
f  119/1/5  113/74/5  116/75/5  120/76/5
usemtl Poliigon_MetalGalvanizedZinc_7184_BaseColor
f  120/167/6  117/63/6  118/24/6  119/168/6

o entity0_brush15
usemtl Poliigon_MetalGalvanizedZinc_7184_BaseColor
f  121/157/1  122/1/1  123/76/1  124/158/1
usemtl Poliigon_MetalGalvanizedZinc_7184_BaseColor
f  125/47/2  123/48/2  122/49/2  126/50/2
usemtl Poliigon_MetalGalvanizedZinc_7184_BaseColor
f  126/209/3  122/210/3  121/211/3  127/212/3
usemtl Poliigon_MetalGalvanizedZinc_7184_BaseColor
f  128/213/4  124/214/4  123/215/4  125/216/4
usemtl Poliigon_MetalGalvanizedZinc_7184_BaseColor
f  127/59/5  121/60/5  124/61/5  128/62/5
usemtl Poliigon_MetalGalvanizedZinc_7184_BaseColor
f  128/167/6  125/63/6  126/24/6  127/168/6

o entity0_brush16
usemtl Poliigon_MetalGalvanizedZinc_7184_BaseColor
f  129/157/1  130/1/1  131/76/1  132/158/1
usemtl Poliigon_MetalGalvanizedZinc_7184_BaseColor
f  133/28/2  131/29/2  130/30/2  134/31/2
usemtl Poliigon_MetalGalvanizedZinc_7184_BaseColor
f  134/217/3  130/218/3  129/219/3  135/220/3
usemtl Poliigon_MetalGalvanizedZinc_7184_BaseColor
f  136/221/4  132/222/4  131/223/4  133/224/4
usemtl Poliigon_MetalGalvanizedZinc_7184_BaseColor
f  135/40/5  129/41/5  132/42/5  136/43/5
usemtl Poliigon_MetalGalvanizedZinc_7184_BaseColor
f  136/167/6  133/63/6  134/24/6  135/168/6

