mtllib plataforma_fase_03.mtl
# vertices
v 288 0 256
v 288 0 496
v 288 352 496
v 288 352 32
v 288 289.88235294117646 32
v 304 352 -16
v 528 352 496
v 528 0 496
v 544 0 485.33333333333337
v 544 0 256
v 592 352 -0
v 576 352 -16
v 571.636363636365 352 466.90909090908787
v 592 352 416
v 589.6 334.3999999999999 -2.3999999999999506
v 571.6363636363644 202.66666666667274 466.9090909090891
v -544 0 320
v -544 0 496
v -544 256 496
v -544 272 480
v -544 272 336
v -544 256 320
v -528 272 496
v -528 272 320
v 288 272 496
v 288 0 496
v 288 0 320
v 288 272 320

# texture coordinates
vt 8 -0
vt 15.5 -0
vt 15.5 11
vt 1 11
vt 1 9.058824
vt -1.8973666 9.058824
vt -1.8973666 11
vt -3.4785054 11
vt 16.5 11
vt 9 11
vt 9 -0
vt 16.5 -0
vt -17 -15.166667
vt -16.5 -15.5
vt -9 -15.5
vt -9 -8
vt -17 -8
vt 18.5 -0
vt 18 0.5
vt 9.5 0.5
vt 9 -1
vt 9 -15.5
vt 16.5 -15.5
vt 17.863636 -14.590909
vt 18.5 -13
vt -17 -0
vt -9 -0
vt -9 9.058824
vt -9.5 11
vt -18 11
vt -18.425 10.45
vt 6.7698636 6.3333335
vt 6.7698636 11
vt 5.1309767 11
vt 5.1309767 -0
vt 5.731902 -0
vt -12.9754095 10.45
vt -12.374369 11
vt -13.081475 11
vt -5.1994696 11
vt -6.912931 11
vt -6.912931 6.3333335
vt -14.590909 6.3333335
vt -15.166667 -0
vt -8 -0
vt 0.075 10.45
vt 0 11
vt -13 11
vt 10 -0
vt 15.5 8
vt 15 8.5
vt 10.5 8.5
vt 10 8
vt -6.0104074 -1.8371173
vt -6.363961 -2.4494898
vt -5.656854 -2.4494898
vt -6.363961 -18.371174
vt -6.0104074 -18.983545
vt -5.656854 -18.371174
vt 9 8.5
vt -16.5 8.5
vt -17 8
vt 17 -15.5
vt 17 -10
vt -9 -10
vt 9 -10
vt -16.5 -10
vt -17 -10.5
vt -17 -15
vt 17 -0
vt 17 8
vt 16.5 8.5
vt -9 8.5
vt -10 8.5
vt -15.5 8.5
vt -15.5 -0
vt -10 -0

# normals
vn -1 0 0
vn -0.9486832980505138 0 -0.31622776601683794
vn 0 0 1
vn 0 -1 -0
vn -0 1 -0
vn 0 -0.6114475010757655 -0.7912850013921671
vn 0.5547001962252291 0 0.8320502943378437
vn 0.7071067811865475 0 -0.7071067811865475
vn 0.9284766908852594 0 0.3713906763541037
vn 0.9908301680442989 -0.13511320473331348 -0
vn -0.5773502691896258 0.5773502691896258 0.5773502691896258
vn -0.5773502691896258 0.5773502691896258 -0.5773502691896258
vn 0 -0 -1
vn 1 0 0

o entity1_brush0
usemtl __TB_empty
f  1/1/1  2/2/1  3/3/1  4/4/1  5/5/1
usemtl __TB_empty
f  5/6/2  4/7/2  6/8/2
usemtl __TB_empty
f  7/9/3  3/10/3  2/11/3  8/12/3
usemtl __TB_empty
f  9/13/4  8/14/4  2/15/4  1/16/4  10/17/4
usemtl __TB_empty
f  11/18/5  12/19/5  6/20/5  4/21/5  3/22/5  7/23/5  13/24/5  14/25/5
usemtl __TB_empty
f  10/26/6  1/27/6  5/28/6  6/29/6  12/30/6  15/31/6
usemtl __TB_empty
f  16/32/7  13/33/7  7/34/7  8/35/7  9/36/7
usemtl __TB_empty
f  15/37/8  12/38/8  11/39/8
usemtl __TB_empty
f  14/40/9  13/41/9  16/42/9
usemtl __TB_empty
f  16/43/10  9/44/10  10/45/10  15/46/10  11/47/10  14/48/10

o entity1_brush1
usemtl __TB_empty
f  17/49/1  18/2/1  19/50/1  20/51/1  21/52/1  22/53/1
usemtl __TB_empty
f  20/54/11  19/55/11  23/56/11
usemtl __TB_empty
f  22/57/12  21/58/12  24/59/12
usemtl __TB_empty
f  25/60/3  23/61/3  19/62/3  18/26/3  26/11/3
usemtl __TB_empty
f  26/15/4  18/63/4  17/64/4  27/65/4
usemtl __TB_empty
f  28/66/5  24/67/5  21/68/5  20/69/5  23/14/5  25/22/5
usemtl __TB_empty
f  27/27/13  17/70/13  22/71/13  24/72/13  28/73/13
usemtl __TB_empty
f  28/74/14  25/75/14  26/76/14  27/77/14

