mtllib portal.mtl
# vertices
v -32 88 -8
v -32 88 16
v -30 112 16
v -30 112 -8
v 20 112 16
v 21.496097557264825 88 16
v 21.496097557264825 88 -8
v 20 112 -8
v -64 -16 -8
v -64 -16 16
v -54 92 16
v -54 92 -8
v -50 100 16
v -50 100 -8
v -42 108 16
v -42 108 -8
v -32.58823529411903 112 16
v -32.58823529411475 112 -8
v -30.013361129586173 112 16
v -42 -16 16
v -31.88107571729062 87.84422466540887 16
v -42 -16 -8
v -30.01336112959778 112 -8
v -31.88107571734684 87.84422466483197 -8
v 21.50389484303525 87.87524342774859 -8
v 21.50389484303527 87.87524342774834 16
v 20.011626879417904 112 16
v 20.0116268794179 112 -8
v 30 -16 -8
v 30 -16 16
v 44 92 16
v 40 100 16
v 32 108 16
v 22.015463917530724 112 16
v 52 -16 16
v 52 -16 -8
v 22.01546391751981 112 -8
v 32 108 -8
v 40 100 -8
v 44 92 -8

# texture coordinates
vt -0.25 2.6574554
vt 0.5 2.6574554
vt 0.5 3.410055
vt -0.25 3.410055
vt 0.625 3.5
vt -0.9375 3.5
vt -1 2.75
vt 0.67175305 2.75
vt -0.67175305 -0.5
vt 1 -0.5
vt 1 0.25
vt -0.67175305 0.25
vt 0.625 0.25
vt -0.9375 0.25
vt -0.9375 -0.5
vt 0.625 -0.5
vt -0.67175305 2.75
vt 1 2.75
vt 0.9375 3.5
vt -0.625 3.5
vt 0.25 3.454334
vt -0.5 3.454334
vt -0.5 2.7028782
vt 0.25 2.7028782
vt -0.25 -0.5
vt 0.5 -0.5
vt 0.5 2.875
vt -0.25 2.875
vt -0.25 1.677051
vt 0.5 1.677051
vt 0.5 1.9565594
vt -0.25 1.9565594
vt 0.8838835 0.25
vt 0.8838835 -0.5
vt 1.2374369 -0.5
vt 1.2374369 0.25
vt -0.63529265 0.25
vt -0.63529265 -0.5
vt -0.31815132 -0.5
vt -0.31815132 0.25
vt -1.2504175 3.5
vt -1.3308823 3.5
vt -1.625 3.375
vt -1.875 3.125
vt -2 2.875
vt -2.3125 -0.5
vt -1.625 -0.5
vt -1.3087835 2.745132
vt 1.625 -0.5
vt 2.3125 -0.5
vt 2.3125 0.25
vt 1.625 0.25
vt -0.93791753 0.25
vt -1.0183823 0.25
vt -1.0183823 -0.5
vt -0.93791753 -0.5
vt 1.3087835 2.745132
vt 2 2.875
vt 1.875 3.125
vt 1.625 3.375
vt 1.3308823 3.5
vt 1.2504175 3.5
vt -0.5 2.6591945
vt -0.5 -0.60070866
vt 0.25 -0.60070866
vt 0.25 2.6591945
vt -0.5 3.4163153
vt 0.25 3.4163153
vt -0.25 2.6988356
vt 0.5 2.6988356
vt 0.5 3.454175
vt -0.25 3.454175
vt -0.25 -0.5575059
vt 0.5 -0.5575059
vt 1 2.875
vt 0.875 3.125
vt 0.625 3.375
vt 0.31298327 3.5
vt 0.25036335 3.5
vt 0.2969967 2.7461014
vt 0.5625 -0.5
vt 1.25 -0.5
vt 1.25 0.25
vt 0.5625 0.25
vt 0.6879833 0.25
vt 0.62536335 0.25
vt 0.62536335 -0.5
vt 0.6879833 -0.5
vt -1.25 -0.5
vt -0.5625 -0.5
vt -0.2969967 2.7461014
vt -0.25036335 3.5
vt -0.31298327 3.5
vt -0.625 3.375
vt -0.875 3.125
vt -1 2.875
vt 0.36470747 -0.5
vt 0.6990592 -0.5
vt 0.6990592 0.25
vt 0.36470747 0.25
vt 1.8838835 -0.5
vt 2.2374368 -0.5
vt 2.2374368 0.25
vt 1.8838835 0.25
vt 0.5 2.677051
vt 0.5 2.9565597
vt -0.25 2.9565597
vt -0.25 2.677051

# normals
vn -0.9965457582448796 0.08304547985373997 -0
vn 0 0 1
vn 0 -1 -0
vn -0 1 -0
vn 0 -0 -1
vn 0.9980626688474951 0.06221663003583123 -0
vn -0.9957406740559503 0.09219821056073614 -0
vn -0.8944271909999159 0.4472135954999579 -0
vn -0.7071067811865476 0.7071067811865476 -0
vn -0.3911406403447099 0.9203309184585349 -6.975300785132086e-14
vn 0.9952859455386244 -0.09698395028707776 -0
vn 0.9970241768711571 -0.07708949821079311 -4.821329207821188e-13
vn -0.9980923721131605 -0.06173829224658234 1.4774735096303604e-16
vn -0.9966717703420068 -0.08151921370652432 0
vn 0.3718863837881293 0.9282782543790349 -1.127428985722658e-13
vn 0.7071067811865476 0.7071067811865476 -0
vn 0.8944271909999159 0.4472135954999579 -0
vn 0.997267754456709 0.07387168551531179 -0

o entity0_brush0
usemtl __TB_empty
f  1/1/1  2/2/1  3/3/1  4/4/1
usemtl __TB_empty
f  5/5/2  3/6/2  2/7/2  6/8/2
usemtl __TB_empty
f  6/9/3  2/10/3  1/11/3  7/12/3
usemtl __TB_empty
f  8/13/4  4/14/4  3/15/4  5/16/4
usemtl __TB_empty
f  7/17/5  1/18/5  4/19/5  8/20/5
usemtl __TB_empty
f  8/21/6  5/22/6  6/23/6  7/24/6

o entity0_brush1
usemtl __TB_empty
f  9/25/7  10/26/7  11/27/7  12/28/7
usemtl __TB_empty
f  12/29/8  11/30/8  13/31/8  14/32/8
usemtl __TB_empty
f  14/33/9  13/34/9  15/35/9  16/36/9
usemtl __TB_empty
f  16/37/10  15/38/10  17/39/10  18/40/10
usemtl __TB_empty
f  19/41/2  17/42/2  15/43/2  13/44/2  11/45/2  10/46/2  20/47/2  21/48/2
usemtl __TB_empty
f  20/49/3  10/50/3  9/51/3  22/52/3
usemtl __TB_empty
f  23/53/4  18/54/4  17/55/4  19/56/4
usemtl __TB_empty
f  24/57/5  22/49/5  9/50/5  12/58/5  14/59/5  16/60/5  18/61/5  23/62/5
usemtl __TB_empty
f  21/63/11  20/64/11  22/65/11  24/66/11
usemtl __TB_empty
f  19/67/12  21/63/12  24/66/12  23/68/12

o entity0_brush2
usemtl __TB_empty
f  25/69/13  26/70/13  27/71/13  28/72/13
usemtl __TB_empty
f  29/73/14  30/74/14  26/70/14  25/69/14
usemtl __TB_empty
f  31/75/2  32/76/2  33/77/2  34/78/2  27/79/2  26/80/2  30/81/2  35/82/2
usemtl __TB_empty
f  35/83/3  30/84/3  29/81/3  36/82/3
usemtl __TB_empty
f  37/85/4  28/86/4  27/87/4  34/88/4
usemtl __TB_empty
f  36/89/5  29/90/5  25/91/5  28/92/5  37/93/5  38/94/5  39/95/5  40/96/5
usemtl __TB_empty
f  38/97/15  37/98/15  34/99/15  33/100/15
usemtl __TB_empty
f  39/101/16  38/102/16  33/103/16  32/104/16
usemtl __TB_empty
f  40/105/17  39/106/17  32/107/17  31/108/17
usemtl __TB_empty
f  36/26/18  40/27/18  31/28/18  35/25/18

